<mxfile host="app.diagrams.net" modified="2023-06-13T00:41:21.471Z" agent="Mozilla/5.0 (Windows NT 10.0; Win64; x64) AppleWebKit/537.36 (KHTML, like Gecko) Chrome/113.0.0.0 Safari/537.36 OPR/99.0.0.0 (Edition Yx GX)" etag="lZR-5gur_JNEpu7Tz2F0" version="21.3.7" type="github">
  <diagram name="Page-1" id="2YBvvXClWsGukQMizWep">
    <mxGraphModel dx="1393" dy="758" grid="1" gridSize="10" guides="1" tooltips="1" connect="1" arrows="1" fold="1" page="1" pageScale="1" pageWidth="850" pageHeight="1100" math="0" shadow="0">
      <root>
        <mxCell id="0" />
        <mxCell id="1" parent="0" />
        <mxCell id="aM9ryv3xv72pqoxQDRHE-1" value="Mobile" style="shape=umlLifeline;perimeter=lifelinePerimeter;whiteSpace=wrap;html=1;container=0;dropTarget=0;collapsible=0;recursiveResize=0;outlineConnect=0;portConstraint=eastwest;newEdgeStyle={&quot;edgeStyle&quot;:&quot;elbowEdgeStyle&quot;,&quot;elbow&quot;:&quot;vertical&quot;,&quot;curved&quot;:0,&quot;rounded&quot;:0};" parent="1" vertex="1">
          <mxGeometry x="40" y="40" width="100" height="470" as="geometry" />
        </mxCell>
        <mxCell id="aM9ryv3xv72pqoxQDRHE-2" value="" style="html=1;points=[];perimeter=orthogonalPerimeter;outlineConnect=0;targetShapes=umlLifeline;portConstraint=eastwest;newEdgeStyle={&quot;edgeStyle&quot;:&quot;elbowEdgeStyle&quot;,&quot;elbow&quot;:&quot;vertical&quot;,&quot;curved&quot;:0,&quot;rounded&quot;:0};" parent="aM9ryv3xv72pqoxQDRHE-1" vertex="1">
          <mxGeometry x="45" y="70" width="10" height="350" as="geometry" />
        </mxCell>
        <mxCell id="aM9ryv3xv72pqoxQDRHE-5" value="Settings" style="shape=umlLifeline;perimeter=lifelinePerimeter;whiteSpace=wrap;html=1;container=0;dropTarget=0;collapsible=0;recursiveResize=0;outlineConnect=0;portConstraint=eastwest;newEdgeStyle={&quot;edgeStyle&quot;:&quot;elbowEdgeStyle&quot;,&quot;elbow&quot;:&quot;vertical&quot;,&quot;curved&quot;:0,&quot;rounded&quot;:0};" parent="1" vertex="1">
          <mxGeometry x="210" y="40" width="100" height="470" as="geometry" />
        </mxCell>
        <mxCell id="aM9ryv3xv72pqoxQDRHE-6" value="" style="html=1;points=[];perimeter=orthogonalPerimeter;outlineConnect=0;targetShapes=umlLifeline;portConstraint=eastwest;newEdgeStyle={&quot;edgeStyle&quot;:&quot;elbowEdgeStyle&quot;,&quot;elbow&quot;:&quot;vertical&quot;,&quot;curved&quot;:0,&quot;rounded&quot;:0};" parent="aM9ryv3xv72pqoxQDRHE-5" vertex="1">
          <mxGeometry x="45" y="80" width="10" height="340" as="geometry" />
        </mxCell>
        <mxCell id="nUUB9q7u5CCXwWNesS4O-10" value="" style="shape=umlDestroy;whiteSpace=wrap;html=1;strokeWidth=3;targetShapes=umlLifeline;" vertex="1" parent="aM9ryv3xv72pqoxQDRHE-5">
          <mxGeometry x="40" y="460" width="20" height="20" as="geometry" />
        </mxCell>
        <mxCell id="nUUB9q7u5CCXwWNesS4O-16" value="" style="html=1;points=[];perimeter=orthogonalPerimeter;outlineConnect=0;targetShapes=umlLifeline;portConstraint=eastwest;newEdgeStyle={&quot;edgeStyle&quot;:&quot;elbowEdgeStyle&quot;,&quot;elbow&quot;:&quot;vertical&quot;,&quot;curved&quot;:0,&quot;rounded&quot;:0};" vertex="1" parent="aM9ryv3xv72pqoxQDRHE-5">
          <mxGeometry x="50" y="340" width="10" height="40" as="geometry" />
        </mxCell>
        <mxCell id="nUUB9q7u5CCXwWNesS4O-17" value="&lt;font style=&quot;font-size: 12px;&quot;&gt;Джойним список тестов пользователя &lt;br&gt;(client_qualification_test)&lt;br&gt;и справочник&amp;nbsp;qualification_tests&lt;br&gt;&lt;/font&gt;" style="html=1;align=left;spacingLeft=2;endArrow=block;rounded=0;edgeStyle=orthogonalEdgeStyle;curved=0;rounded=0;" edge="1" parent="aM9ryv3xv72pqoxQDRHE-5">
          <mxGeometry x="0.113" y="10" relative="1" as="geometry">
            <mxPoint x="55" y="331" as="sourcePoint" />
            <Array as="points">
              <mxPoint x="100" y="331" />
              <mxPoint x="100" y="361" />
            </Array>
            <mxPoint x="60" y="361" as="targetPoint" />
            <mxPoint as="offset" />
          </mxGeometry>
        </mxCell>
        <mxCell id="aM9ryv3xv72pqoxQDRHE-7" value="(rest) Get /Setting/profile" style="html=1;verticalAlign=bottom;endArrow=block;edgeStyle=elbowEdgeStyle;elbow=vertical;curved=0;rounded=0;" parent="1" source="aM9ryv3xv72pqoxQDRHE-2" target="aM9ryv3xv72pqoxQDRHE-6" edge="1">
          <mxGeometry relative="1" as="geometry">
            <mxPoint x="195" y="130" as="sourcePoint" />
            <Array as="points">
              <mxPoint x="160" y="130" />
              <mxPoint x="180" y="120" />
            </Array>
            <mxPoint as="offset" />
          </mxGeometry>
        </mxCell>
        <mxCell id="aM9ryv3xv72pqoxQDRHE-8" value="Get /Setting/profile response" style="html=1;verticalAlign=bottom;endArrow=open;dashed=1;endSize=8;edgeStyle=elbowEdgeStyle;elbow=vertical;curved=0;rounded=0;" parent="1" source="aM9ryv3xv72pqoxQDRHE-6" target="aM9ryv3xv72pqoxQDRHE-2" edge="1">
          <mxGeometry relative="1" as="geometry">
            <mxPoint x="195" y="205" as="targetPoint" />
            <Array as="points">
              <mxPoint x="170" y="440" />
              <mxPoint x="190" y="430" />
              <mxPoint x="190" y="280" />
            </Array>
          </mxGeometry>
        </mxCell>
        <mxCell id="nUUB9q7u5CCXwWNesS4O-1" value="Portfolio" style="shape=umlLifeline;perimeter=lifelinePerimeter;whiteSpace=wrap;html=1;container=0;dropTarget=0;collapsible=0;recursiveResize=0;outlineConnect=0;portConstraint=eastwest;newEdgeStyle={&quot;edgeStyle&quot;:&quot;elbowEdgeStyle&quot;,&quot;elbow&quot;:&quot;vertical&quot;,&quot;curved&quot;:0,&quot;rounded&quot;:0};" vertex="1" parent="1">
          <mxGeometry x="400" y="40" width="100" height="210" as="geometry" />
        </mxCell>
        <mxCell id="nUUB9q7u5CCXwWNesS4O-2" value="" style="html=1;points=[];perimeter=orthogonalPerimeter;outlineConnect=0;targetShapes=umlLifeline;portConstraint=eastwest;newEdgeStyle={&quot;edgeStyle&quot;:&quot;elbowEdgeStyle&quot;,&quot;elbow&quot;:&quot;vertical&quot;,&quot;curved&quot;:0,&quot;rounded&quot;:0};" vertex="1" parent="nUUB9q7u5CCXwWNesS4O-1">
          <mxGeometry x="45" y="80" width="10" height="100" as="geometry" />
        </mxCell>
        <mxCell id="nUUB9q7u5CCXwWNesS4O-4" value="(grpc) GetClients" style="html=1;verticalAlign=bottom;endArrow=block;edgeStyle=elbowEdgeStyle;elbow=vertical;curved=0;rounded=0;" edge="1" parent="1" source="aM9ryv3xv72pqoxQDRHE-6" target="nUUB9q7u5CCXwWNesS4O-2">
          <mxGeometry relative="1" as="geometry">
            <mxPoint x="290" y="160" as="sourcePoint" />
            <Array as="points">
              <mxPoint x="300" y="150" />
              <mxPoint x="320" y="160" />
              <mxPoint x="360" y="150" />
              <mxPoint x="375" y="160" />
            </Array>
            <mxPoint x="410" y="160" as="targetPoint" />
          </mxGeometry>
        </mxCell>
        <mxCell id="nUUB9q7u5CCXwWNesS4O-5" value="(grpc) GetClients response" style="html=1;verticalAlign=bottom;endArrow=open;dashed=1;endSize=8;edgeStyle=elbowEdgeStyle;elbow=vertical;curved=0;rounded=0;" edge="1" parent="1" source="nUUB9q7u5CCXwWNesS4O-2" target="aM9ryv3xv72pqoxQDRHE-6">
          <mxGeometry relative="1" as="geometry">
            <mxPoint x="210" y="210" as="targetPoint" />
            <Array as="points">
              <mxPoint x="340" y="190" />
              <mxPoint x="320" y="170" />
              <mxPoint x="305" y="210" />
            </Array>
            <mxPoint x="430" y="190" as="sourcePoint" />
          </mxGeometry>
        </mxCell>
        <mxCell id="nUUB9q7u5CCXwWNesS4O-6" value="Security" style="shape=umlLifeline;perimeter=lifelinePerimeter;whiteSpace=wrap;html=1;container=0;dropTarget=0;collapsible=0;recursiveResize=0;outlineConnect=0;portConstraint=eastwest;newEdgeStyle={&quot;edgeStyle&quot;:&quot;elbowEdgeStyle&quot;,&quot;elbow&quot;:&quot;vertical&quot;,&quot;curved&quot;:0,&quot;rounded&quot;:0};" vertex="1" parent="1">
          <mxGeometry x="590" y="40" width="100" height="370" as="geometry" />
        </mxCell>
        <mxCell id="nUUB9q7u5CCXwWNesS4O-7" value="" style="html=1;points=[];perimeter=orthogonalPerimeter;outlineConnect=0;targetShapes=umlLifeline;portConstraint=eastwest;newEdgeStyle={&quot;edgeStyle&quot;:&quot;elbowEdgeStyle&quot;,&quot;elbow&quot;:&quot;vertical&quot;,&quot;curved&quot;:0,&quot;rounded&quot;:0};" vertex="1" parent="nUUB9q7u5CCXwWNesS4O-6">
          <mxGeometry x="45" y="240" width="10" height="100" as="geometry" />
        </mxCell>
        <mxCell id="nUUB9q7u5CCXwWNesS4O-8" value="" style="shape=umlDestroy;whiteSpace=wrap;html=1;strokeWidth=3;targetShapes=umlLifeline;" vertex="1" parent="1">
          <mxGeometry x="440" y="240" width="20" height="20" as="geometry" />
        </mxCell>
        <mxCell id="nUUB9q7u5CCXwWNesS4O-11" value="" style="shape=umlDestroy;whiteSpace=wrap;html=1;strokeWidth=3;targetShapes=umlLifeline;" vertex="1" parent="1">
          <mxGeometry x="80" y="500" width="20" height="20" as="geometry" />
        </mxCell>
        <mxCell id="nUUB9q7u5CCXwWNesS4O-12" value="(grpc)&amp;nbsp;getQualificationTests" style="html=1;verticalAlign=bottom;endArrow=block;edgeStyle=elbowEdgeStyle;elbow=vertical;curved=0;rounded=0;" edge="1" parent="1" source="aM9ryv3xv72pqoxQDRHE-6" target="nUUB9q7u5CCXwWNesS4O-7">
          <mxGeometry relative="1" as="geometry">
            <mxPoint x="325" y="310" as="sourcePoint" />
            <Array as="points">
              <mxPoint x="500" y="310" />
              <mxPoint x="350" y="310" />
              <mxPoint x="370" y="320" />
              <mxPoint x="410" y="310" />
              <mxPoint x="425" y="320" />
            </Array>
            <mxPoint x="500" y="310" as="targetPoint" />
            <mxPoint as="offset" />
          </mxGeometry>
        </mxCell>
        <mxCell id="nUUB9q7u5CCXwWNesS4O-13" value="(grpc)&amp;nbsp;getQualificationTests&lt;br&gt;&amp;nbsp;response" style="html=1;verticalAlign=bottom;endArrow=open;dashed=1;endSize=8;edgeStyle=elbowEdgeStyle;elbow=vertical;curved=0;rounded=0;" edge="1" parent="1" source="nUUB9q7u5CCXwWNesS4O-7" target="aM9ryv3xv72pqoxQDRHE-6">
          <mxGeometry relative="1" as="geometry">
            <mxPoint x="280" y="350" as="targetPoint" />
            <Array as="points">
              <mxPoint x="360" y="350" />
              <mxPoint x="340" y="330" />
              <mxPoint x="325" y="370" />
            </Array>
            <mxPoint x="470" y="350" as="sourcePoint" />
          </mxGeometry>
        </mxCell>
        <mxCell id="nUUB9q7u5CCXwWNesS4O-22" value="возвращает значения таблицы&amp;nbsp;&lt;br&gt;client_qualification_test" style="shape=note2;boundedLbl=1;whiteSpace=wrap;html=1;size=11;verticalAlign=top;align=center;" vertex="1" parent="1">
          <mxGeometry x="484" y="140" width="140" height="80" as="geometry" />
        </mxCell>
        <mxCell id="nUUB9q7u5CCXwWNesS4O-23" value="возвращает значения таблицы&amp;nbsp;&lt;br&gt;qualification_tests" style="shape=note2;boundedLbl=1;whiteSpace=wrap;html=1;size=12;verticalAlign=top;align=center;" vertex="1" parent="1">
          <mxGeometry x="672" y="305" width="120" height="75" as="geometry" />
        </mxCell>
        <mxCell id="nUUB9q7u5CCXwWNesS4O-25" value="" style="endArrow=none;startArrow=none;endFill=0;startFill=0;endSize=8;html=1;verticalAlign=bottom;dashed=1;labelBackgroundColor=none;dashPattern=10 10;rounded=0;entryX=0;entryY=0.5;entryDx=0;entryDy=0;entryPerimeter=0;" edge="1" parent="1" source="nUUB9q7u5CCXwWNesS4O-2" target="nUUB9q7u5CCXwWNesS4O-22">
          <mxGeometry width="160" relative="1" as="geometry">
            <mxPoint x="270" y="270" as="sourcePoint" />
            <mxPoint x="430" y="270" as="targetPoint" />
          </mxGeometry>
        </mxCell>
        <mxCell id="nUUB9q7u5CCXwWNesS4O-26" value="" style="endArrow=none;startArrow=none;endFill=0;startFill=0;endSize=8;html=1;verticalAlign=bottom;dashed=1;labelBackgroundColor=none;dashPattern=10 10;rounded=0;entryX=0;entryY=0.5;entryDx=0;entryDy=0;entryPerimeter=0;" edge="1" parent="1" source="nUUB9q7u5CCXwWNesS4O-7" target="nUUB9q7u5CCXwWNesS4O-23">
          <mxGeometry width="160" relative="1" as="geometry">
            <mxPoint x="570" y="420" as="sourcePoint" />
            <mxPoint x="595" y="420" as="targetPoint" />
          </mxGeometry>
        </mxCell>
        <mxCell id="nUUB9q7u5CCXwWNesS4O-9" value="" style="shape=umlDestroy;whiteSpace=wrap;html=1;strokeWidth=3;targetShapes=umlLifeline;" vertex="1" parent="1">
          <mxGeometry x="630" y="400" width="20" height="20" as="geometry" />
        </mxCell>
      </root>
    </mxGraphModel>
  </diagram>
</mxfile>
